<svg width="7" height="12" viewBox="0 0 7 12" fill="none" xmlns="http://www.w3.org/2000/svg">
<path d="M2.34628 7.99445C2.34628 7.26933 2.43433 6.69182 2.61043 6.26193C2.78653 5.83204 3.10766 5.40991 3.5738 4.99556C4.04513 4.57602 4.35849 4.23677 4.51387 3.9778C4.66925 3.71365 4.74695 3.43655 4.74695 3.1465C4.74695 2.27118 4.34295 1.83352 3.53496 1.83352C3.15168 1.83352 2.84351 1.95264 2.61043 2.1909C2.38254 2.42397 2.26341 2.74769 2.25305 3.16204H0C0.0103589 2.17277 0.328894 1.39845 0.955604 0.839067C1.58749 0.279689 2.44728 0 3.53496 0C4.633 0 5.48501 0.266741 6.09101 0.800222C6.697 1.32852 7 2.07695 7 3.0455C7 3.48576 6.90159 3.9027 6.70477 4.29634C6.50795 4.68479 6.16352 5.11727 5.67147 5.59378L5.04217 6.19201C4.64854 6.5701 4.42323 7.01295 4.36626 7.52053L4.33518 7.99445H2.34628ZM2.12098 10.3796C2.12098 10.0326 2.23751 9.74768 2.47059 9.52497C2.70884 9.29707 3.01184 9.18313 3.37958 9.18313C3.74732 9.18313 4.04772 9.29707 4.2808 9.52497C4.51905 9.74768 4.63818 10.0326 4.63818 10.3796C4.63818 10.7214 4.52164 11.0037 4.28857 11.2264C4.06067 11.4491 3.75767 11.5605 3.37958 11.5605C3.00148 11.5605 2.69589 11.4491 2.46282 11.2264C2.23492 11.0037 2.12098 10.7214 2.12098 10.3796Z" fill="#D2D6EF"/>
</svg>
