<svg width="132" height="52" viewBox="0 0 132 52" fill="none" xmlns="http://www.w3.org/2000/svg">
<path d="M106.965 50.0691C120.792 50.0691 132 38.8608 132 25.0346C132 11.2084 120.792 0 106.965 0C93.1392 0 81.9309 11.2084 81.9309 25.0346C81.9309 38.8608 93.1392 50.0691 106.965 50.0691Z" fill="#627EEA"/>
<path opacity="0.688616" d="M96.5947 24.7879L106.922 30.8894V7.65266L96.5947 24.7879Z" fill="white"/>
<path opacity="0.686328" d="M106.926 7.65308V30.8898L117.249 24.7883L106.926 7.65308Z" fill="white"/>
<path opacity="0.8" d="M96.5941 26.7445L106.921 41.2938V32.8459L96.5941 26.7445Z" fill="white"/>
<path opacity="0.9" d="M106.926 32.8459V41.2938L117.257 26.7445L106.926 32.8459Z" fill="white"/>
<path opacity="0.69827" d="M106.922 20.0923L96.5941 24.7891L106.922 30.8906L117.245 24.7891L106.922 20.0923Z" fill="white"/>
<path opacity="0.4" fill-rule="evenodd" clip-rule="evenodd" d="M69.5468 20.1052C69.039 19.5973 68.2155 19.5973 67.7077 20.1052C67.1998 20.613 67.1998 21.4365 67.7077 21.9443L70.2559 24.4926L57.4383 24.4926C56.7201 24.4926 56.1378 25.0748 56.1378 25.7931C56.1378 26.5113 56.7201 27.0936 57.4383 27.0936L70.2562 27.0936L67.7077 29.6421C67.1998 30.15 67.1998 30.9734 67.7077 31.4813C68.2155 31.9892 69.039 31.9892 69.5468 31.4813L74.3153 26.7128C74.8232 26.205 74.8232 25.3815 74.3153 24.8737L69.5468 20.1052Z" fill="#D2D6EF"/>
<path d="M11.9783 23.9565C18.5937 23.9565 23.9565 18.5937 23.9565 11.9783C23.9565 5.36285 18.5937 0 11.9783 0C5.36285 0 0 5.36285 0 11.9783C0 18.5937 5.36285 23.9565 11.9783 23.9565Z" fill="url(#paint0_linear_1_32)"/>
<path d="M19.0812 10.0018H17.6598C16.8772 7.82978 14.773 6.34048 11.9981 6.34048H7.43436V10.0018H5.84923V11.3154H7.43436V12.6929H5.84923V14.0066H7.43436V17.624H11.9981C14.7411 17.624 16.8293 16.1467 17.6319 14.0066H19.0812V12.6929H17.9513C17.9792 12.4614 17.9952 12.2218 17.9952 11.9822V11.9503C17.9952 11.7347 17.9832 11.5231 17.9632 11.3154H19.0852V10.0018H19.0812ZM8.71204 7.51036H11.9981C14.0344 7.51036 15.5476 8.51254 16.2464 9.99784H8.71204V7.51036ZM11.9981 16.4421H8.71204V14.0026H16.2384C15.5357 15.4639 14.0264 16.4421 11.9981 16.4421ZM16.6736 12.0102C16.6736 12.2418 16.6576 12.4694 16.6257 12.689H8.71204V11.3115H16.6297C16.6576 11.5271 16.6736 11.7507 16.6736 11.9782V12.0102Z" fill="white"/>
<path d="M40.1668 23.9565C42.5359 23.9565 44.8518 23.254 46.8216 21.9378C48.7914 20.6216 50.3267 18.7509 51.2333 16.5621C52.1399 14.3734 52.3771 11.965 51.9149 9.64143C51.4528 7.31788 50.3119 5.18355 48.6367 3.50836C46.9615 1.83317 44.8272 0.692349 42.5037 0.230164C40.1801 -0.232019 37.7717 0.00518937 35.583 0.911796C33.3942 1.8184 31.5235 3.35368 30.2073 5.3235C28.8911 7.29331 28.1886 9.60919 28.1886 11.9783C28.1886 15.1551 29.4506 18.2018 31.6969 20.4482C33.9433 22.6945 36.99 23.9565 40.1668 23.9565Z" fill="#2775C9"/>
<path d="M43.1478 13.5926C43.1478 11.8821 42.1069 11.3055 40.0935 11.0294C38.6054 10.8143 38.3195 10.4649 38.3195 9.77097C38.3195 9.07701 38.8229 8.64452 39.7856 8.64452C40.6628 8.64452 41.1686 8.94996 41.3763 9.65613C41.3984 9.73342 41.4447 9.80154 41.5086 9.85038C41.5724 9.89924 41.6502 9.92624 41.7306 9.92734H42.5003C42.5506 9.92839 42.6005 9.91833 42.6464 9.89792C42.6924 9.87748 42.7332 9.84716 42.7662 9.80913C42.799 9.7711 42.8231 9.72628 42.8367 9.67789C42.8503 9.62948 42.8531 9.57865 42.8449 9.52906C42.6005 8.41239 41.8479 7.74043 40.6677 7.53029V6.35253C40.6677 6.25533 40.6291 6.1621 40.5604 6.09337C40.4916 6.02462 40.3984 5.98602 40.3012 5.98602H39.5681C39.4709 5.98602 39.3777 6.02462 39.309 6.09337C39.2402 6.1621 39.2016 6.25533 39.2016 6.35253V7.48874C37.7355 7.69399 36.8094 8.66161 36.8094 9.90291C36.8094 11.5083 37.7868 12.1314 39.8296 12.4075C41.2199 12.6347 41.6158 12.9353 41.6158 13.7245C41.6158 14.5138 40.9438 15.044 39.9958 15.044C38.7178 15.044 38.2853 14.4844 38.1411 13.7587C38.1244 13.6755 38.0796 13.6005 38.0142 13.5462C37.9489 13.4919 37.8669 13.4618 37.7819 13.4606H36.9463C36.8964 13.4603 36.8471 13.4709 36.8017 13.4916C36.7564 13.5124 36.7161 13.5428 36.6838 13.5807C36.6514 13.6187 36.6278 13.6632 36.6144 13.7113C36.6011 13.7593 36.5984 13.8097 36.6066 13.8589C36.8192 15.0807 37.6036 15.975 39.2016 16.19V17.3482C39.2016 17.4454 39.2402 17.5387 39.309 17.6074C39.3777 17.6761 39.4709 17.7147 39.5681 17.7147H40.3012C40.3984 17.7147 40.4916 17.6761 40.5604 17.6074C40.6291 17.5387 40.6677 17.4454 40.6677 17.3482V16.19C42.1827 15.9505 43.1478 14.9047 43.1478 13.5926Z" fill="white"/>
<path d="M37.4197 18.7361C36.0078 18.2206 34.7886 17.2835 33.9271 16.0518C33.0657 14.8202 32.6036 13.3535 32.6036 11.8504C32.6036 10.3474 33.0657 8.88067 33.9271 7.64901C34.7886 6.41732 36.0078 5.48024 37.4197 4.96468C37.5102 4.92495 37.5877 4.86059 37.6435 4.77894C37.6992 4.69729 37.7309 4.60164 37.7349 4.50287V3.81868C37.7407 3.75809 37.7306 3.69703 37.7054 3.64163C37.6802 3.58623 37.6408 3.53842 37.5913 3.50301C37.5418 3.4676 37.4839 3.44586 37.4233 3.43992C37.3627 3.43401 37.3016 3.44414 37.2462 3.46927C35.4682 4.03594 33.9165 5.15336 32.8154 6.65998C31.7143 8.16659 31.1209 9.98432 31.1209 11.8504C31.1209 13.7165 31.7143 15.5342 32.8154 17.0409C33.9165 18.5475 35.4682 19.6649 37.2462 20.2315C37.3016 20.2567 37.3627 20.2668 37.4233 20.2609C37.4839 20.255 37.5418 20.2332 37.5913 20.1978C37.6408 20.1624 37.6802 20.1146 37.7054 20.0592C37.7306 20.0038 37.7407 19.9427 37.7349 19.8821V19.198C37.7309 19.0992 37.6992 19.0035 37.6435 18.9219C37.5877 18.8402 37.5102 18.7759 37.4197 18.7361Z" fill="white"/>
<path d="M42.6213 3.46927C42.5659 3.44414 42.5048 3.43401 42.4442 3.43992C42.3836 3.44586 42.3257 3.4676 42.2762 3.50301C42.2267 3.53842 42.1873 3.58623 42.1621 3.64163C42.1369 3.69703 42.1268 3.75809 42.1326 3.81868V4.50287C42.1366 4.60164 42.1683 4.69729 42.224 4.77894C42.2798 4.86059 42.3573 4.92495 42.4478 4.96468C43.8597 5.48024 45.079 6.41732 45.9404 7.64901C46.8019 8.88067 47.2639 10.3474 47.2639 11.8504C47.2639 13.3535 46.8019 14.8202 45.9404 16.0518C45.079 17.2835 43.8597 18.2206 42.4478 18.7361C42.3544 18.7716 42.274 18.8349 42.2176 18.9175C42.1613 19.0001 42.1316 19.098 42.1326 19.198V19.8821C42.1268 19.9427 42.1369 20.0038 42.1621 20.0592C42.1873 20.1146 42.2267 20.1624 42.2762 20.1978C42.3257 20.2332 42.3836 20.255 42.4442 20.2609C42.5048 20.2668 42.5659 20.2567 42.6213 20.2315C44.3993 19.6649 45.951 18.5475 47.0521 17.0409C48.1532 15.5342 48.7466 13.7165 48.7466 11.8504C48.7466 9.98432 48.1532 8.16659 47.0521 6.65998C45.951 5.15336 44.3993 4.03594 42.6213 3.46927Z" fill="white"/>
<g filter="url(#filter0_d_1_32)">
<path d="M25.4737 50.0691C32.0891 50.0691 37.452 44.7062 37.452 38.0908C37.452 31.4754 32.0891 26.1125 25.4737 26.1125C18.8583 26.1125 13.4954 31.4754 13.4954 38.0908C13.4954 44.7062 18.8583 50.0691 25.4737 50.0691Z" fill="black"/>
</g>
<path d="M25.4737 50.0691C32.0891 50.0691 37.452 44.7062 37.452 38.0908C37.452 31.4754 32.0891 26.1125 25.4737 26.1125C18.8583 26.1125 13.4954 31.4754 13.4954 38.0908C13.4954 44.7062 18.8583 50.0691 25.4737 50.0691Z" fill="#26A17B"/>
<path style="mix-blend-mode:soft-light" d="M25.4737 50.0691C32.0891 50.0691 37.452 44.7062 37.452 38.0908C37.452 31.4754 32.0891 26.1125 25.4737 26.1125C18.8583 26.1125 13.4954 31.4754 13.4954 38.0908C13.4954 44.7062 18.8583 50.0691 25.4737 50.0691Z" fill="url(#paint1_linear_1_32)"/>
<g filter="url(#filter1_d_1_32)">
<path d="M27.0083 39.1952V39.1936C26.9204 39.2 26.4676 39.2271 25.4575 39.2271C24.651 39.2271 24.0832 39.2031 23.8835 39.1936V39.196C20.7788 39.0594 18.4614 38.5188 18.4614 37.872C18.4614 37.2259 20.7788 36.6853 23.8835 36.5464V38.6577C24.0864 38.6721 24.6677 38.7064 25.4711 38.7064C26.4349 38.7064 26.918 38.6665 27.0083 38.6585V36.548C30.1066 36.6861 32.4184 37.2267 32.4184 37.872C32.4184 38.5188 30.1066 39.0578 27.0083 39.1952ZM27.0083 36.3284V34.439H31.3316V31.5578H19.5602V34.439H23.8835V36.3276C20.3699 36.4889 17.7275 37.1852 17.7275 38.0189C17.7275 38.8526 20.3699 39.5481 23.8835 39.7102V45.7648H27.0083V39.7086C30.5163 39.5473 33.1523 38.8518 33.1523 38.0189C33.1523 37.186 30.5163 36.4905 27.0083 36.3284Z" fill="black"/>
</g>
<path d="M27.0083 39.1952V39.1936C26.9204 39.2 26.4676 39.2271 25.4575 39.2271C24.651 39.2271 24.0832 39.2031 23.8835 39.1936V39.196C20.7788 39.0594 18.4614 38.5188 18.4614 37.872C18.4614 37.2259 20.7788 36.6853 23.8835 36.5464V38.6577C24.0864 38.6721 24.6677 38.7064 25.4711 38.7064C26.4349 38.7064 26.918 38.6665 27.0083 38.6585V36.548C30.1066 36.6861 32.4184 37.2267 32.4184 37.872C32.4184 38.5188 30.1066 39.0578 27.0083 39.1952ZM27.0083 36.3284V34.439H31.3316V31.5578H19.5602V34.439H23.8835V36.3276C20.3699 36.4889 17.7275 37.1852 17.7275 38.0189C17.7275 38.8526 20.3699 39.5481 23.8835 39.7102V45.7648H27.0083V39.7086C30.5163 39.5473 33.1523 38.8518 33.1523 38.0189C33.1523 37.186 30.5163 36.4905 27.0083 36.3284Z" fill="white"/>
<defs>
<filter id="filter0_d_1_32" x="12.4941" y="25.6118" width="25.9593" height="25.9593" filterUnits="userSpaceOnUse" color-interpolation-filters="sRGB">
<feFlood flood-opacity="0" result="BackgroundImageFix"/>
<feColorMatrix in="SourceAlpha" type="matrix" values="0 0 0 0 0 0 0 0 0 0 0 0 0 0 0 0 0 0 127 0" result="hardAlpha"/>
<feOffset dy="0.5"/>
<feGaussianBlur stdDeviation="0.5"/>
<feColorMatrix type="matrix" values="0 0 0 0 0 0 0 0 0 0 0 0 0 0 0 0 0 0 0.199474 0"/>
<feBlend mode="normal" in2="BackgroundImageFix" result="effect1_dropShadow_1_32"/>
<feBlend mode="normal" in="SourceGraphic" in2="effect1_dropShadow_1_32" result="shape"/>
</filter>
<filter id="filter1_d_1_32" x="16.7262" y="31.0571" width="17.4275" height="16.2098" filterUnits="userSpaceOnUse" color-interpolation-filters="sRGB">
<feFlood flood-opacity="0" result="BackgroundImageFix"/>
<feColorMatrix in="SourceAlpha" type="matrix" values="0 0 0 0 0 0 0 0 0 0 0 0 0 0 0 0 0 0 127 0" result="hardAlpha"/>
<feOffset dy="0.5"/>
<feGaussianBlur stdDeviation="0.5"/>
<feColorMatrix type="matrix" values="0 0 0 0 0 0 0 0 0 0 0 0 0 0 0 0 0 0 0.204257 0"/>
<feBlend mode="normal" in2="BackgroundImageFix" result="effect1_dropShadow_1_32"/>
<feBlend mode="normal" in="SourceGraphic" in2="effect1_dropShadow_1_32" result="shape"/>
</filter>
<linearGradient id="paint0_linear_1_32" x1="11.9783" y1="-3.39384" x2="11.9783" y2="26.472" gradientUnits="userSpaceOnUse">
<stop stop-color="#F9A606"/>
<stop offset="1" stop-color="#FBCC5F"/>
</linearGradient>
<linearGradient id="paint1_linear_1_32" x1="25.4737" y1="26.1125" x2="25.4737" y2="50.0691" gradientUnits="userSpaceOnUse">
<stop stop-color="white" stop-opacity="0.5"/>
<stop offset="1" stop-opacity="0.5"/>
</linearGradient>
</defs>
</svg>
