<svg width="16" height="14" viewBox="0 0 16 14" fill="none" xmlns="http://www.w3.org/2000/svg">
<path d="M15.9952 4.42594H14.2769C13.3309 1.8003 10.7873 0 7.43288 0H1.91614V4.42594H0V6.01387H1.91614V7.67903H0V9.26696H1.91614V13.6398H7.43288C10.7487 13.6398 13.273 11.854 14.2431 9.26696H15.9952V7.67903H14.6293C14.663 7.39909 14.6824 7.1095 14.6824 6.81991V6.78129C14.6824 6.52066 14.6679 6.26485 14.6437 6.01387H16V4.42594H15.9952ZM3.46063 1.41418H7.43288C9.89442 1.41418 11.7237 2.62564 12.5683 4.42111H3.46063V1.41418ZM7.43288 12.2112H3.46063V9.26214H12.5587C11.7092 11.0287 9.88477 12.2112 7.43288 12.2112ZM13.0848 6.85369C13.0848 7.13363 13.0655 7.40875 13.0268 7.67421H3.46063V6.00905H13.0317C13.0655 6.26968 13.0848 6.53997 13.0848 6.81508V6.85369Z" fill="white"/>
</svg>
