<svg width="105" height="45" viewBox="0 0 105 45" fill="none" xmlns="http://www.w3.org/2000/svg">
<path d="M56.0683 9.34667H63.2615V10.0381H56.8235V15.1624H62.442V15.8539H56.8235V21.0799H63.4329V21.7715H56.0683V9.34667Z" fill="white"/>
<path d="M75.8297 10.0382H71.5719V21.7714H70.8167V10.0382H66.5532V9.34661H75.8297V10.0382Z" fill="white"/>
<path d="M80.0696 9.34667H80.8247V15.1571H88.7732V9.34667H89.5282V21.7715H88.7732V15.8485H80.8247V21.7715H80.0696V9.34667Z" fill="white"/>
<path d="M102.183 18.0676H96.0017L94.5609 21.7714H93.7895L98.6315 9.34661H99.5529L104.448 21.7714H103.639L102.183 18.0676ZM101.909 17.3762L99.0762 10.183L96.2748 17.3762H101.909Z" fill="white"/>
<path d="M62.1909 35.013V35.7022H56.0729V24.4947H56.8881V35.013H62.1909Z" fill="white"/>
<path d="M74.2607 35.0289L74.2447 35.7022H67.5332V24.4947H74.2447V25.1679H68.3485V29.6984H73.2553V30.3558H68.3485V35.0289H74.2607Z" fill="white"/>
<path d="M88.807 24.4947V35.7022H88.4272C88.3586 35.7022 88.3017 35.6903 88.257 35.6665C88.2121 35.6427 88.1685 35.602 88.1264 35.5438L80.8531 25.8175C80.8688 25.9759 80.8768 26.1264 80.8768 26.2689V35.7023H80.1645V24.4947H80.5681C80.642 24.4947 80.6987 24.5039 80.7384 24.5224C80.778 24.541 80.8215 24.5819 80.8688 24.6451L88.1264 34.3478C88.1106 34.1894 88.1027 34.0389 88.1027 33.8963V24.4947H88.807Z" fill="white"/>
<path d="M105 30.0944C105 30.9604 104.871 31.7393 104.612 32.431C104.354 33.1228 103.99 33.7115 103.52 34.1973C103.05 34.6831 102.487 35.0554 101.83 35.314C101.174 35.5729 100.449 35.7022 99.6577 35.7022H95.5661V24.4947H99.6577C100.449 24.4947 101.173 24.6242 101.83 24.8827C102.487 25.1415 103.05 25.5137 103.52 25.9996C103.99 26.4854 104.354 27.0741 104.612 27.7658C104.871 28.4576 105 29.2338 105 30.0944ZM104.161 30.0944C104.161 29.3131 104.053 28.616 103.837 28.0033C103.62 27.3909 103.314 26.8734 102.919 26.451C102.523 26.0286 102.048 25.7065 101.494 25.4846C100.94 25.2628 100.328 25.152 99.6576 25.152H96.3811V35.0447H99.6576C100.328 35.0447 100.94 34.9338 101.494 34.712C102.048 34.4902 102.523 34.1683 102.919 33.7456C103.314 33.3232 103.62 32.8058 103.837 32.1933C104.053 31.5809 104.161 30.8813 104.161 30.0944Z" fill="white"/>
<g clip-path="url(#clip0_1_8)">
<path d="M27.6695 24.9174L13.9735 18.568V14.1234L27.6695 20.4729V24.9174Z" fill="#D2D5D8"/>
<path d="M13.9735 31.2673L27.6695 24.9178V20.4732L13.9735 26.8227V31.2673Z" fill="#D2D5D8"/>
<path d="M31.2249 18.5818H13.9735V14.1085H32.8056L31.2249 18.5818Z" fill="white"/>
<path d="M27.6711 24.9242H10.5188L8.9381 20.451H27.6711V24.9242Z" fill="white"/>
<path d="M31.2249 31.2666H13.9735V26.7933H32.8056L31.2249 31.2666Z" fill="white"/>
</g>
<rect x="1.01813" y="1.01813" width="42.3447" height="42.4636" rx="20.9911" stroke="white" stroke-width="2"/>
<defs>
<clipPath id="clip0_1_8">
<rect x="2.01813" y="2.01813" width="40.3447" height="40.4636" rx="19.9911" fill="white"/>
</clipPath>
</defs>
</svg>
